<?xml version="1.0" encoding="UTF-8" standalone="no"?>
<svg width="32px" height="32px" viewBox="0 0 32 32" version="1.1" xmlns="http://www.w3.org/2000/svg" xmlns:xlink="http://www.w3.org/1999/xlink">
    <!-- Generator: Sketch 41.2 (35397) - http://www.bohemiancoding.com/sketch -->
    <title>Group</title>
    <desc>Created with Sketch.</desc>
    <defs></defs>
    <g id="Page-1" stroke="none" stroke-width="1" fill="none" fill-rule="evenodd">
        <g id="Group">
            <path d="M16,0 L16,0 C24.837,0 32,7.163 32,16 C32,24.837 24.837,32 16,32 C7.163,32 0,24.837 0,16 C0,7.163 7.163,0 16,0 Z" id="Combined-Shape" fill="#C94914"></path>
            <path d="M16,3 C12.528,3 9.263,4.352 6.808,6.808 C4.353,9.264 3,12.528 3,16 C3,19.472 4.352,22.737 6.808,25.192 C9.264,27.647 12.528,29 16,29 C19.472,29 22.737,27.648 25.192,25.192 C27.647,22.736 29,19.472 29,16 C29,12.528 27.648,9.263 25.192,6.808 C22.736,4.353 19.472,3 16,3 Z" id="Path" fill="#FFFFFF"></path>
            <polygon id="Shape" fill="#C94914" points="14 22 18 22 18 26 14 26"></polygon>
            <polygon id="Shape" fill="#C94914" points="14 6 18 6 18 18 14 18"></polygon>
        </g>
    </g>
</svg>