<?xml version="1.0" encoding="utf-8"?>
<!DOCTYPE svg PUBLIC "-//W3C//DTD SVG 1.1//EN" "http://www.w3.org/Graphics/SVG/1.1/DTD/svg11.dtd">
<svg version="1.1" id="tw-logo" xmlns="http://www.w3.org/2000/svg" xmlns:xlink="http://www.w3.org/1999/xlink" x="0px" y="0px"
	 viewBox="0 0 150 70" enable-background="new 0 0 150 70" xml:space="preserve">
<path fill="none" d="z"/>
<path fill="#FFFFFF" d="M136.2,38.3c0,2.9-2.9,5.3-6.4,5.3H16.5c-3.5,0-6.4-2.4-6.4-5.3v-33C10.1,2.4,13,0,16.5,0h113.3
	c3.5,0,6.4,2.4,6.4,5.3V38.3L136.2,38.3z"/>
<path fill="#FF7B17" d="M111.9,25.6c-0.4-0.2-0.9-0.3-1.4-0.3c-1.9,0-4.6,1.2-4.6,4.9v13.4h-4.5V21h4.5v2.4c1.9-1.6,3.4-2.7,6-2.7
	V25.6L111.9,25.6z M98,16.8h-4.5v-4.9H98V16.8L98,16.8z M98,43.6h-4.5V21H98V43.6L98,43.6z M85.1,43.6h-4l-2.5-13.4h-0.1l-2.5,13.4
	h-4L66.7,21h4.8l2.8,14h0.1l2.5-14h3.6l2.4,14H83l2.7-14h4.8L85.1,43.6L85.1,43.6z M47.9,16.8h-4.5v-4.9h4.5V16.8L47.9,16.8z
	 M47.9,43.6h-4.5V21h4.5V43.6L47.9,43.6z M40.5,25.6c-0.4-0.2-0.9-0.3-1.4-0.3c-1.9,0-4.6,1.2-4.6,4.9v13.4h-4.5V21h4.5v2.4
	c1.9-1.6,3.4-2.7,6-2.7V25.6L40.5,25.6z M118.2,34v3.1c0,2.1,0.8,2.2,2.8,2.2h15.2V10c0-3.3-2.7-6-6-6H16c-3.3,0-6,2.7-6,6V21h9.4
	v-9.1H24V21h2.8v4.3H24v11.8c0,2.1,0.8,2.2,2.8,2.2v4.3h-1.9c-4.1,0-5.5-2.9-5.5-5.3v-13h-9.4v25.6c0,3,2.3,5.5,5.2,5.9
	c13.8-6.8,24.9-8.2,36-9.8V21h4.5v2c1.2-1.3,2-2.3,4.3-2.3c1.8,0,3.2,0.7,4,2.1c0.5,1,0.8,2.4,0.8,4.8v8.6c0,3.2-0.1,4.5-0.7,5.5
	c-0.8,1.2-1.9,2-4,2c-1.8,0-3.2-0.8-4.2-2.3h-0.1v4.9c26.6-3.3,53.6,0.1,80.4-0.2v-2.6h-17.1c-4.1,0-5.5-2.9-5.5-5.3v-5.1h0v-4.5
	c0-1.8,0.2-3.4,0.8-4.6c1.1-2,3.2-3.2,5.9-3.2c4.2,0,6.8,3.1,6.8,7V34L118.2,34L118.2,34L118.2,34z M120.4,25.3
	c-1.4,0-2.2,0.9-2.2,2.6v2.6h4.4v-2.6C122.6,26.2,121.8,25.3,120.4,25.3L120.4,25.3z M58.1,39.3c1.7,0,2.2-1.2,2.2-2.7v-8.3
	c0-1.8-0.7-3.1-2.2-3.1c-1.4,0-2.3,1.2-2.3,2.8v8.8C55.8,38.3,56.8,39.3,58.1,39.3L58.1,39.3z M59.7,49c-1.3,0-2.6,0-3.9,0.1v3.6
	h-4.5v-3.4c-14,1-25.3,4.3-33.5,7.6h112.4c3.3,0,6-2.7,6-6v-3.8C123.2,48,99.9,49.1,59.7,49L59.7,49z"/>
<path fill="#EA1837" d="M15.2,56.8c-3.9,1.9-8.1,4.3-12.5,7.2c0,0,0,1,0,1s5.3-4.1,15.1-8.1c8.1-3.3,19.4-6.6,33.5-7.6V47
	C40.1,48.6,29.1,50,15.2,56.8L15.2,56.8z"/>
<path fill="none" d="z"/>
<g>
	<circle fill="#FFFFFF" cx="130.2" cy="22" r="1.2"/>
	<path fill="#FF7B17" d="M130.2,21.1c-0.5,0-1,0.4-1,1c0,0.5,0.4,1,1,1c0.5,0,0.9-0.4,0.9-1C131.1,21.5,130.7,21.1,130.2,21.1z"/>
	<path fill="#FFFFFF" d="M130.4,22.7l-0.3-0.5H130v0.5h-0.2v-1.3h0.5c0.2,0,0.4,0.2,0.4,0.4c0,0.2-0.1,0.3-0.3,0.3l0.3,0.5H130.4z"
		/>
	<path fill="#FF7B17" d="M130.2,21.6H130V22h0.2c0.1,0,0.2-0.1,0.2-0.2C130.4,21.7,130.4,21.6,130.2,21.6z"/>
</g>
<rect x="55.8" y="44.4" fill="#FF7B17" width="80.4" height="5.3"/>
<path fill="#EA1837" d="M136.2,46.1c-26.8,0.4-53.8-3.1-80.4,0.2V49c1.3,0,2.6-0.1,3.9-0.1c40.2,0.1,63.5-0.9,76.6-1.9
	c5.7-0.4,9.4-0.8,11.7-1.1l0.4-0.3C144.3,45.9,140.2,46.1,136.2,46.1L136.2,46.1z"/>
<rect x="51.3" y="21" fill="#FFFFFF" width="4.5" height="31.6"/>
</svg>